<svg xmlns="http://www.w3.org/2000/svg" viewBox="0 0 75 12" id="premium-badge-v2-xsmall" aria-hidden="true" role="none" data-supported-dps="75x12" width="75" height="12">
  <path d="M11.34 11.34c.42-.42.66-.99.66-1.59v-7.5C12 1.01 10.99 0 9.75 0h-7.5C1.65 0 1.08.24.66.66l10.68 10.68z" fill="#e7a33e"/>
  <path d="M.66.66C.24 1.08 0 1.65 0 2.25v7.5C0 10.99 1.01 12 2.25 12h7.5c.6 0 1.17-.24 1.59-.66L.66.66z" fill="#c37d16"/>
  <path d="M53.88 1.52a.91.91 0 11-1.82 0 .91.91 0 111.82 0zm-2.56 3.42h1.11v6.05h1.27V3.86h-2.38v1.08zm21.12-1.27c-.92 0-1.77.37-2.55 1.33-.38-.85-1.14-1.33-2.26-1.33-.86 0-1.7.42-2.29 1.1v-.92h-1.25v7.13h1.27V5.95c.61-.71 1.28-1.12 2.02-1.12.86 0 1.54.55 1.54 1.64v4.52h1.27V5.96c.59-.68 1.28-1.12 2.03-1.12.83 0 1.52.54 1.52 1.64V11h1.27V6.27c0-1.59-.95-2.59-2.56-2.59v-.02zm-11.7 4.72c0 1.1-.8 1.64-1.84 1.64s-1.87-.57-1.87-1.69V3.86h-1.25v4.58c0 1.51 1.11 2.74 3.12 2.74S62 9.96 62 8.44V3.86h-1.27v4.52zM47.43 3.67c-.92 0-1.77.37-2.55 1.33-.38-.85-1.14-1.33-2.26-1.33-.86 0-1.69.42-2.29 1.1v-.92h-1.25v7.13h1.27V5.95c.61-.71 1.28-1.12 2.02-1.12.86 0 1.54.55 1.54 1.64v4.52h1.27v-4.4l-.02-.64c.61-.68 1.3-1.12 2.04-1.12.83 0 1.52.54 1.52 1.64v4.52h1.27V6.26c0-1.59-.95-2.59-2.56-2.59v-.02zm-9.98 4.11v.05h-5.84c.11 1.27 1.01 2.21 2.29 2.21.82 0 1.61-.28 2.21-1.28l1.08.52c-.7 1.36-1.97 1.89-3.32 1.89-2.11 0-3.6-1.54-3.6-3.73s1.57-3.78 3.61-3.78c1.9 0 3.57 1.33 3.57 4.12zm-1.42-.95c-.09-1.12-.94-2.04-2.15-2.04s-2.08.85-2.27 2.04h4.42zm-6.97-3.09c-.99 0-1.63.61-1.94 1.35V3.85h-1.24v7.13h1.27v-3.7c0-1.61.78-2.32 1.96-2.32.14 0 .25.01.36.03.05 0 .1.01.14.01V3.78c-.05 0-.1 0-.16-.01-.12-.01-.24-.03-.39-.03zm-4.59.39c0 1.75-1.16 3.17-3.41 3.17h-1.74v3.68H18V1.01h3.09c2.26 0 3.38 1.4 3.38 3.13zm-1.35 0c0-1.34-.91-1.98-2.13-1.98h-1.67v4h1.67c1.22 0 2.13-.68 2.13-2.02z" fill-rule="evenodd"/>
</svg>
